<!--?xml version="1.0" encoding="utf-8"?-->
<!-- Generator: Adobe Illustrator 15.1.0, SVG Export Plug-In . SVG Version: 6.00 Build 0)  -->

<svg version="1.1" id="_x32_" xmlns="http://www.w3.org/2000/svg" xmlns:xlink="http://www.w3.org/1999/xlink" x="0px" y="0px" width="512px" height="512px" viewBox="0 0 512 512" style="width: 256px; height: 256px; opacity: 1;" xml:space="preserve">
<style type="text/css">

	.st0{fill:#4B4B4B;}

</style>
<g>
	<path class="st0" d="M154.875,306.093c0,0,3.344-85.313,3.344-92c-36.797,15.063-61.875,63.563-68.563,95.344
		c-6.703,31.766-1.688,51.844-1.688,51.844L154.875,306.093z" style="fill: rgb(75, 75, 75);"></path>
	<path class="st0" d="M357.125,306.093c0,0-3.344-85.313-3.344-92c36.797,15.063,61.875,63.563,68.563,95.344
		c6.703,31.766,1.688,51.844,1.688,51.844L357.125,306.093z" style="fill: rgb(75, 75, 75);"></path>
	<path class="st0" d="M290.125,158.468c-4.438-6.563-10.719-11.797-18.109-14.906c-4.922-2.078-10.328-3.234-16.016-3.234
		c-4.281,0-8.375,0.641-12.25,1.844c-3.844,1.203-7.469,2.953-10.75,5.172c-6.578,4.453-11.813,10.734-14.922,18.125
		c-2.078,4.922-3.234,10.313-3.234,16.016c0,4.266,0.656,8.375,1.844,12.234c1.219,3.859,2.969,7.484,5.188,10.766
		c4.438,6.578,10.719,11.797,18.109,14.922c4.922,2.078,10.328,3.234,16.016,3.234c4.281,0,8.375-0.656,12.25-1.859
		c3.844-1.203,7.469-2.953,10.75-5.172c6.578-4.438,11.813-10.734,14.922-18.109c2.078-4.922,3.234-10.328,3.234-16.016
		c0-4.281-0.656-8.375-1.844-12.25C294.094,165.374,292.344,161.765,290.125,158.468z M256,206.39
		c-13.75,0-24.906-11.156-24.906-24.906c0-13.766,11.156-24.906,24.906-24.906s24.906,11.141,24.906,24.906
		C280.906,195.233,269.75,206.39,256,206.39z" style="fill: rgb(75, 75, 75);"></path>
	<path class="st0" d="M323.219,103.702H188.781c-9.125,33.25-15.984,75.266-18.078,127.125c-1.25,30.813-2.031,57.406-2.484,80.281
		h175.563c-0.453-22.875-1.234-49.469-2.484-80.281C339.203,178.968,332.344,136.952,323.219,103.702z M304.359,196.53
		c-1.484,4.766-3.641,9.219-6.375,13.266c-5.453,8.078-13.172,14.484-22.266,18.344c-6.063,2.563-12.75,3.969-19.719,3.969
		c-5.234,0-10.297-0.797-15.063-2.266c-4.75-1.484-9.219-3.656-13.25-6.375c-8.078-5.469-14.5-13.188-18.344-22.281
		c-2.563-6.063-3.969-12.734-3.969-19.703c0-5.234,0.781-10.297,2.266-15.063c1.484-4.75,3.641-9.219,6.375-13.25
		c5.453-8.078,13.172-14.5,22.266-18.344c6.063-2.563,12.75-3.984,19.719-3.984c5.234,0,10.297,0.797,15.063,2.281
		c4.75,1.484,9.219,3.641,13.25,6.375c8.078,5.453,14.5,13.172,18.344,22.266c2.563,6.063,3.969,12.734,3.969,19.719
		C306.625,186.718,305.844,191.78,304.359,196.53z" style="fill: rgb(75, 75, 75);"></path>
	<path class="st0" d="M318.188,86.983C298.281,26.046,270.797-0.001,256-0.001s-42.281,26.047-62.188,86.984H318.188z" style="fill: rgb(75, 75, 75);"></path>
	<path class="st0" d="M307.75,342.655h-29.219l11.953,38.688l-20.719-6.906l-15.891,34.531l-12.422-38.688l-20.719,6.906
		l9.953-34.531h-28.594c-6.219,20.719-36.188,86.438-36.188,86.438c-0.219,0.5-0.125,1.094,0.234,1.516s0.922,0.594,1.453,0.469
		L207,421.702c0.734-0.172,1.484,0.234,1.719,0.969l29.453,88.328c0.188,0.578,0.719,0.984,1.328,1
		c0.609,0.031,1.156-0.313,1.406-0.875l26.625-60.828c0.188-0.438,0.594-0.766,1.063-0.859c0.484-0.078,0.969,0.063,1.313,0.406
		l29.125,29.125c0.422,0.422,1.047,0.547,1.594,0.313c0.563-0.219,0.906-0.75,0.906-1.344v-48.641c0-0.438,0.188-0.828,0.5-1.109
		c0.328-0.281,0.75-0.406,1.172-0.359l41.328,5.641c0.531,0.078,1.063-0.141,1.375-0.563s0.391-0.984,0.188-1.469L307.75,342.655z" style="fill: rgb(75, 75, 75);"></path>
</g>
</svg>
